<?xml version="1.0" encoding="UTF-8"?><!DOCTYPE svg PUBLIC "-//W3C//DTD SVG 1.1//EN" "http://www.w3.org/Graphics/SVG/1.1/DTD/svg11.dtd"><svg xmlns="http://www.w3.org/2000/svg" xmlns:xlink="http://www.w3.org/1999/xlink"><symbol id="icon-burger" viewBox="0 0 76.166 68.959">
  <g>
    <path d="M71.914,46.042H4.252C1.914,46.042,0,47.955,0,50.294v3.454C0,56.086,1.914,58,4.252,58h0.956v1.037 c0,5.457,4.464,9.922,9.921,9.922h45.908c5.456,0,9.921-4.465,9.921-9.922V58h0.956c2.339,0,4.252-1.914,4.252-4.252v-3.454 C76.166,47.955,74.253,46.042,71.914,46.042z M67.958,59.037c0,3.815-3.104,6.922-6.921,6.922H15.129 c-3.816,0-6.921-3.104-6.921-6.922V58h59.75V59.037z M73.166,53.748c0,0.679-0.573,1.252-1.252,1.252H4.252 C3.573,55,3,54.427,3,53.748v-3.454c0-0.679,0.573-1.252,1.252-1.252h67.662c0.679,0,1.252,0.573,1.252,1.252V53.748z"/>
    <polygon points="16.162,37.856 21.635,41.856 27.112,37.856 32.591,41.856 38.069,37.856 43.548,41.856 49.026,37.856 54.505,41.856 59.985,37.856 65.474,41.856 71.842,37.212 70.074,34.788 65.474,38.144 59.985,34.144 54.505,38.144 49.026,34.143 43.548,38.144 38.069,34.143 32.591,38.144 27.112,34.143 21.636,38.144 16.163,34.142 10.686,38.144 6.093,34.789 4.323,37.211 10.686,41.856 	"/>
    <path d="M70.888,31.094c0.041-0.61,0.055-2.616,0.037-3C70.242,12.476,55.804,0,38.083,0C20.363,0,5.924,12.476,5.241,28.094 c-0.017,0.384-0.004,2.389,0.039,3H70.888z M38.083,3c16.031,0,29.15,11.154,29.842,25.094H8.241C8.933,14.154,22.051,3,38.083,3z"/>
    <circle cx="38.083" cy="15.042" r="2"/>
    <circle cx="30.083" cy="10.083" r="2"/>
    <circle cx="46.083" cy="10.083" r="2"/>
  </g>
</symbol><symbol id="icon-burger.svg" viewBox="0 0 40 35">
<path d="M37.7428 23.3004H2.25722C0.997375 23.3004 0 24.3135 0 25.4785V27.2514C0 28.4164 0.997375 29.3788 2.25722 29.3788H2.78215V29.8853C2.78215 32.6712 5.14436 34.9 7.979 34.9H32.021C34.9081 34.9 37.2178 32.6206 37.2178 29.8853V29.3788H37.7428C38.9501 29.3788 40 28.4164 40 27.2007V25.4278C40 24.3135 39.0026 23.3004 37.7428 23.3004ZM35.6955 29.8853C35.6955 31.8101 34.0682 33.3804 32.0735 33.3804H7.92651C5.93176 33.3804 4.30446 31.8101 4.30446 29.8853V29.3788H35.6955V29.8853ZM38.4252 27.2007C38.4252 27.5553 38.1102 27.8592 37.7428 27.8592H2.25722C1.88976 27.8592 1.5748 27.5553 1.5748 27.2007V25.4278C1.5748 25.1239 1.88976 24.82 2.25722 24.82H37.7953C38.1627 24.82 38.4777 25.1239 38.4777 25.4785V27.2007H38.4252Z" fill="#81B3D2"/>
<path d="M8.50395 19.1973L11.3386 21.2234L14.2257 19.1973L17.1129 21.2234L20 19.1973L22.8347 21.2234L25.7218 19.1973L28.6089 21.2234L31.4961 19.1973L34.3832 21.2234L37.6903 18.8427L36.7979 17.627L34.3832 19.2986L31.4961 17.2725L28.6089 19.2986L25.7218 17.2725L22.8347 19.2986L20 17.2725L17.1129 19.2986L14.2257 17.2725L11.3386 19.2986L8.50395 17.2725L5.61682 19.2986L3.20212 17.627L2.25723 18.8427L5.61682 21.2234L8.50395 19.1973Z" fill="#81B3D2"/>
<path d="M37.2179 15.7531C37.2179 15.4492 37.2704 14.4361 37.2179 14.2335C36.8504 6.33164 29.2913 0 20 0C10.7087 0 3.09712 6.33164 2.72967 14.2335C2.72967 14.4361 2.72967 15.4492 2.72967 15.7531H37.2179ZM20 1.51959C28.399 1.51959 35.3281 7.19274 35.6431 14.2335H4.30447C4.67193 7.19274 11.6011 1.51959 20 1.51959Z" fill="#81B3D2"/>
<path d="M20 8.61109C20.5798 8.61109 21.0499 8.15752 21.0499 7.59802C21.0499 7.03852 20.5798 6.58496 20 6.58496C19.4202 6.58496 18.9501 7.03852 18.9501 7.59802C18.9501 8.15752 19.4202 8.61109 20 8.61109Z" fill="#81B3D2"/>
<path d="M15.8005 6.12866C16.3803 6.12866 16.8504 5.6751 16.8504 5.1156C16.8504 4.5561 16.3803 4.10254 15.8005 4.10254C15.2207 4.10254 14.7506 4.5561 14.7506 5.1156C14.7506 5.6751 15.2207 6.12866 15.8005 6.12866Z" fill="#81B3D2"/>
<path d="M24.1995 6.12866C24.7793 6.12866 25.2493 5.6751 25.2493 5.1156C25.2493 4.5561 24.7793 4.10254 24.1995 4.10254C23.6196 4.10254 23.1496 4.5561 23.1496 5.1156C23.1496 5.6751 23.6196 6.12866 24.1995 6.12866Z" fill="#81B3D2"/>
</symbol><symbol id="icon-burger_tablet" viewBox="0 0 76 68">
<path d="M71.7113 45.3324H4.28871C1.89501 45.3324 0 47.3034 0 49.57V53.0192C0 55.2858 1.89501 57.1582 4.28871 57.1582H5.28609V58.1437C5.28609 63.5639 9.77428 67.9 15.1601 67.9H60.8399C66.3255 67.9 70.7139 63.4653 70.7139 58.1437V57.1582H71.7113C74.0053 57.1582 76 55.2858 76 52.9206V49.4714C76 47.3034 74.105 45.3324 71.7113 45.3324ZM67.8215 58.1437C67.8215 61.8886 64.7297 64.9436 60.9396 64.9436H15.0604C11.2703 64.9436 8.17848 61.8886 8.17848 58.1437V57.1582H67.8215V58.1437ZM73.0079 52.9206C73.0079 53.6105 72.4095 54.2018 71.7113 54.2018H4.28871C3.59055 54.2018 2.99213 53.6105 2.99213 52.9206V49.4714C2.99213 48.8801 3.59055 48.2889 4.28871 48.2889H71.811C72.5092 48.2889 73.1076 48.8801 73.1076 49.57V52.9206H73.0079Z" fill="#81B3D2"/>
<path d="M16.1575 37.3496L21.5434 41.2915L27.0289 37.3496L32.5145 41.2915L38 37.3496L43.3859 41.2915L48.8714 37.3496L54.357 41.2915L59.8426 37.3496L65.3281 41.2915L71.6116 36.6597L69.9161 34.2946L65.3281 37.5467L59.8426 33.6047L54.357 37.5467L48.8714 33.6047L43.3859 37.5467L38 33.6047L32.5145 37.5467L27.0289 33.6047L21.5434 37.5467L16.1575 33.6047L10.672 37.5467L6.08403 34.2946L4.28876 36.6597L10.672 41.2915L16.1575 37.3496Z" fill="#81B3D2"/>
<path d="M70.7138 30.6486C70.7138 30.0573 70.8136 28.0864 70.7138 27.6922C70.0157 12.3186 55.6535 0 37.9999 0C20.3464 0 5.88444 12.3186 5.18628 27.6922C5.18628 28.0864 5.18628 30.0573 5.18628 30.6486H70.7138ZM37.9999 2.95646C53.9579 2.95646 67.1233 13.9939 67.7217 27.6922H8.17841C8.87657 13.9939 22.0419 2.95646 37.9999 2.95646Z" fill="#81B3D2"/>
<path d="M38 16.7532C39.1017 16.7532 39.9948 15.8708 39.9948 14.7823C39.9948 13.6937 39.1017 12.8113 38 12.8113C36.8983 12.8113 36.0052 13.6937 36.0052 14.7823C36.0052 15.8708 36.8983 16.7532 38 16.7532Z" fill="#81B3D2"/>
<path d="M30.021 11.924C31.1227 11.924 32.0157 11.0416 32.0157 9.95303C32.0157 8.86449 31.1227 7.98206 30.021 7.98206C28.9193 7.98206 28.0262 8.86449 28.0262 9.95303C28.0262 11.0416 28.9193 11.924 30.021 11.924Z" fill="#81B3D2"/>
<path d="M45.979 11.924C47.0807 11.924 47.9738 11.0416 47.9738 9.95303C47.9738 8.86449 47.0807 7.98206 45.979 7.98206C44.8773 7.98206 43.9843 8.86449 43.9843 9.95303C43.9843 11.0416 44.8773 11.924 45.979 11.924Z" fill="#81B3D2"/>
</symbol><symbol id="icon-cross" viewBox="0 0 22.199 22.199">
  <polygon points="22.199,2.804 19.396,0 11.1,8.297 2.804,0 0,2.803 8.297,11.1 0,19.396 2.803,22.199 11.1,13.902 19.396,22.199 22.199,19.396 13.903,11.1 "/>
</symbol><symbol id="icon-facebook" viewBox="0 0 8.672 18.944">
  <path d="M6.275,3.356c0.799,0,1.599,0,2.398,0c0-1.119,0-2.237,0-3.356c-0.959,0-1.92,0-2.878,0C2.656,0.181,1.54,2.387,1.948,6.114 H0v3.518h1.959c0,3.104,0,6.208,0,9.312c1.279,0,2.559,0,3.837,0c0-3.104,0-6.208,0-9.312h2.857V6.114H5.787 C5.765,5.069,5.75,3.709,6.275,3.356z"/>
</symbol><symbol id="icon-gift" viewBox="0 0 63 75.084">
  <path d="M60.165,22.23h-0.103H35.758c13.604-6.815,14.688-11.115,14.188-13.52c-1.145-3.916-5.604-6.938-9.848-5.341 c-5.484,2.063-7.029,10.262-8.514,16.19C29.69,13.561,27.858,5.91,23.573,2.034c-1.242-1.125-3.049-2.237-5.676-2.003 c-3.965,0.352-9.652,5.317-7.344,10.849c2.217,5.313,9.539,8.67,14.354,11.35H2.834C1.275,22.23,0,23.506,0,25.065V36.25 c0,1.559,1.275,2.834,2.835,2.834h0.27v35.999h56.958V39.084h0.104c1.561,0,2.835-1.275,2.835-2.834V25.065 C63,23.506,61.725,22.23,60.165,22.23z M41.766,5.873c2.07-0.306,4.907,1.283,5.176,3.171c0.386,2.723-3.349,5.192-5.008,6.343 c-2.484,1.723-4.853,2.611-7.178,4.006C35.628,15.748,37.268,6.539,41.766,5.873z M19.232,15.721 c-2.19-1.467-6.444-4.378-6.342-7.678c0.11-3.552,5.655-6.491,8.68-3.839c3.797,3.331,5.625,10.972,7.01,16.357 C25.381,19.042,22.35,17.808,19.232,15.721z M25.114,72.147H6.042V39.084h19.072V72.147z M25.114,36.084H3V25.23h22.114V36.084z  M35.115,72.146h-7.063V25.23h7.063V72.146z M57.125,72.147H38.053V39.084h19.072V72.147z M60,36.084H38.053V25.23H60V36.084z"/>
</symbol><symbol id="icon-gift.svg" viewBox="0 0 32 38">
<path d="M30.5778 11.2058H30.527H18.1841C25.0921 7.76156 25.6508 5.58358 25.3968 4.36796C24.8381 2.39259 22.5524 0.873068 20.419 1.68348C17.6254 2.74714 16.8635 6.9005 16.1016 9.88889C15.1365 6.84985 14.2222 3.0004 12.0381 1.02502C11.4286 0.467863 10.5143 -0.0892942 9.14286 0.0120071C7.11111 0.21461 4.21587 2.69649 5.43492 5.48228C6.55238 8.16676 10.2603 9.88888 12.7492 11.2565H1.42222C0.609524 11.2565 0 11.9149 0 12.6747V18.3475C0 19.158 0.660317 19.7658 1.42222 19.7658H1.5746V38H30.527V19.7658H30.5778C31.3905 19.7658 32 19.1073 32 18.3475V12.6747C32 11.8643 31.3397 11.2058 30.5778 11.2058ZM21.2317 2.94975C22.2984 2.79779 23.7206 3.6082 23.873 4.57057C24.0762 5.93813 22.1968 7.2044 21.3333 7.76156C20.0635 8.62262 18.8444 9.07847 17.6762 9.78758C18.0825 7.91351 18.946 3.25365 21.2317 2.94975ZM9.75238 7.91351C8.63492 7.15375 6.50159 5.68488 6.55238 4.01341C6.60317 2.18999 9.44762 0.721116 10.9714 2.08868C12.9016 3.76016 13.8159 7.66026 14.527 10.3954C12.9016 9.58498 11.3778 8.97717 9.75238 7.91351ZM12.7492 36.4805H3.04762V19.7658H12.7492V36.4805ZM12.7492 18.2462H1.52381V12.7253H12.7492V18.2462ZM17.8286 36.4805H14.2222V12.7253H17.8286V36.4805ZM29.0032 36.4805H19.3524V19.7658H29.054V36.4805H29.0032ZM30.4762 18.2462H19.3524V12.7253H30.4762V18.2462Z" fill="#81B3D2"/>
</symbol><symbol id="icon-gift_tablet" viewBox="0 0 64 75">
<path d="M61.1556 22.1167H61.054H36.3683C50.1841 15.3189 51.3016 11.0202 50.7937 8.62098C49.6762 4.72221 45.1048 1.72316 40.8381 3.32266C35.2508 5.42199 33.727 13.6194 32.2032 19.5175C30.273 13.5194 28.4444 5.92183 24.0762 2.02307C22.8571 0.923414 21.0286 -0.176239 18.2857 0.0236982C14.2222 0.423572 8.43175 5.32202 10.8698 10.8203C13.1048 16.1186 20.5206 19.5175 25.4984 22.2167H2.84444C1.21905 22.2167 0 23.5163 0 25.0158V36.2123C0 37.8118 1.32063 39.0114 2.84444 39.0114H3.14921V75H61.054V39.0114H61.1556C62.781 39.0114 64 37.7118 64 36.2123V25.0158C64 23.4163 62.6794 22.1167 61.1556 22.1167ZM42.4635 5.82187C44.5968 5.52196 47.4413 7.12146 47.746 9.02085C48.1524 11.72 44.3937 14.2192 42.6667 15.3189C40.127 17.0183 37.6889 17.918 35.3524 19.3176C36.1651 15.6188 37.8921 6.42168 42.4635 5.82187ZM19.5048 15.6188C17.2698 14.1192 13.0032 11.2202 13.1048 7.9212C13.2063 4.32234 18.8952 1.42326 21.9429 4.1224C25.8032 7.42136 27.6317 15.1189 29.054 20.5172C25.8032 18.9177 22.7556 17.7181 19.5048 15.6188ZM25.4984 72.0009H6.09524V39.0114H25.4984V72.0009ZM25.4984 36.0123H3.04762V25.1158H25.4984V36.0123ZM35.6571 72.0009H28.4444V25.1158H35.6571V72.0009ZM58.0064 72.0009H38.7048V39.0114H58.1079V72.0009H58.0064ZM60.9524 36.0123H38.7048V25.1158H60.9524V36.0123Z" fill="#81B3D2"/>
</symbol><symbol id="icon-house" viewBox="0 0 39 37">
<path d="M15.4015 33.2194H23.7549V21.0613H15.4015V33.2194ZM22.2408 31.7441H16.9155V22.5365H22.1886V31.7441H22.2408Z" fill="#81B3D2"/>
<path d="M37.9036 20.0431L39 18.9748L33.8313 13.9386V0.203483H26.6265V6.91843L19.4739 0L0 19.0257L1.09639 20.094L5.16867 16.126V35.3552H3.13253V36.8305H36.494V35.3552H33.8313V16.0752L37.9036 20.0431ZM28.1406 1.72961H32.2651V12.4633L28.1406 8.44455V1.72961ZM32.3173 35.3043H6.73494V14.5999L19.4739 2.13657L32.2651 14.5999V35.3043H32.3173Z" fill="#81B3D2"/>
<path d="M15.5582 13.8369C15.5582 16.0243 17.3855 17.8048 19.5783 17.8048C21.8233 17.8048 23.6506 16.0243 23.6506 13.8369C23.6506 11.6494 21.8233 9.9198 19.5783 9.9198C17.3333 9.9198 15.5582 11.6494 15.5582 13.8369ZM19.5783 11.2933C20.9879 11.2933 22.1888 12.4125 22.1888 13.8369C22.1888 15.2104 21.0402 16.3804 19.5783 16.3804C18.1687 16.3804 16.9679 15.2612 16.9679 13.8369C16.9679 12.4633 18.1687 11.2933 19.5783 11.2933Z" fill="#81B3D2"/>
<path d="M10.3895 21.0613H8.82324V23.0452H10.3895V21.0613Z" fill="#81B3D2"/>
<path d="M13.4698 21.0613H11.9036V23.0452H13.4698V21.0613Z" fill="#81B3D2"/>
<path d="M10.3895 24.1128H8.82324V26.0968H10.3895V24.1128Z" fill="#81B3D2"/>
<path d="M13.4698 24.1128H11.9036V26.0968H13.4698V24.1128Z" fill="#81B3D2"/>
<path d="M27.0443 21.0613H25.478V23.0452H27.0443V21.0613Z" fill="#81B3D2"/>
<path d="M30.1769 21.0613H28.6106V23.0452H30.1769V21.0613Z" fill="#81B3D2"/>
<path d="M27.0443 24.1128H25.478V26.0968H27.0443V24.1128Z" fill="#81B3D2"/>
<path d="M30.1769 24.1128H28.6106V26.0968H30.1769V24.1128Z" fill="#81B3D2"/>
</symbol><symbol id="icon-house_tablet" viewBox="0 0 75 72">
<path d="M29.6185 64.9389H45.6827V41.1709H29.6185V64.9389ZM42.7711 62.0549H32.5301V44.0549H42.6707V62.0549H42.7711Z" fill="#81B3D2"/>
<path d="M72.8916 39.1823L75 37.0939L65.0602 27.2486V0.39779H51.2048V13.5249L37.4498 0L0 37.1934L2.10843 39.2818L9.93976 31.5249V69.116H6.0241V72H70.1807V69.116H65.0602V31.4254L72.8916 39.1823ZM54.1165 3.38122H62.0482V24.3646L54.1165 16.5083V3.38122ZM62.1486 69.0166H12.9518V28.5414L37.4498 4.1768L62.0482 28.5414V69.0166H62.1486Z" fill="#81B3D2"/>
<path d="M29.9197 27.0491C29.9197 31.3253 33.4338 34.806 37.6507 34.806C41.9679 34.806 45.482 31.3253 45.482 27.0491C45.482 22.7728 41.9679 19.3916 37.6507 19.3916C33.3334 19.3916 29.9197 22.7728 29.9197 27.0491ZM37.6507 22.0767C40.3615 22.0767 42.6707 24.2645 42.6707 27.0491C42.6707 29.7341 40.4619 32.0214 37.6507 32.0214C34.9398 32.0214 32.6306 29.8336 32.6306 27.0491C32.6306 24.364 34.9398 22.0767 37.6507 22.0767Z" fill="#81B3D2"/>
<path d="M19.9799 41.1709H16.9679V45.0493H19.9799V41.1709Z" fill="#81B3D2"/>
<path d="M25.9036 41.1709H22.8915V45.0493H25.9036V41.1709Z" fill="#81B3D2"/>
<path d="M19.9799 47.1387H16.9679V51.0171H19.9799V47.1387Z" fill="#81B3D2"/>
<path d="M25.9036 47.1387H22.8915V51.0171H25.9036V47.1387Z" fill="#81B3D2"/>
<path d="M52.008 41.1709H48.996V45.0493H52.008V41.1709Z" fill="#81B3D2"/>
<path d="M58.0321 41.1709H55.0201V45.0493H58.0321V41.1709Z" fill="#81B3D2"/>
<path d="M52.008 47.1387H48.996V51.0171H52.008V47.1387Z" fill="#81B3D2"/>
<path d="M58.0321 47.1387H55.0201V51.0171H58.0321V47.1387Z" fill="#81B3D2"/>
</symbol><symbol id="icon-like" viewBox="0 0 22 20">
  <g id="Page-1">
    <g id="Core" transform="translate(-295.000000, -464.000000)">
      <g id="thumb-up" transform="translate(295.000000, 464.000000)">
        <path id="Shape" fill="#000000" d="M12.383,3.646l-0.637,2.929L11.219,9H13.7h6.2v2c0,0.018,0,0.037,0.001,0.058L17,18H8V8.029 l0.014-0.015L12.383,3.646 M2,10v8V10 M13.2,0L6.6,6.6C6.2,6.9,6,7.4,6,8v10c0,1.1,0.9,2,2,2h9c0.8,0,1.5-0.5,1.8-1.2l3-7.1 C21.9,11.5,21.9,11.2,21.9,11V9H22c0-1.1-0.9-2-2-2h-6.3l1-4.6V2.1c0-0.4-0.2-0.8-0.4-1.1L13.2,0L13.2,0z M4,8H0v12h4V8L4,8z M22,9c0,0.033,0,0.044,0,0.044V9L22,9z"/>
      </g>
    </g>
  </g>
</symbol><symbol id="icon-mail" viewBox="0 0 16 16">
  <path d="M8,10c-0.266,0-0.5-0.094-1-0.336L0,6v7c0,0.55,0.45,1,1,1h14c0.55,0,1-0.45,1-1V6L9,9.664C8.5,9.906,8.266,10,8,10z M15,2 H1C0.45,2,0,2.45,0,3v0.758l8,4.205l8-4.205V3C16,2.45,15.55,2,15,2z"/>
</symbol><symbol id="icon-map-marker" viewBox="0 0 27 27">
  <circle fill="#FFFFFF" cx="13.5" cy="13.5" r="13.5"/>
  <circle fill="#81B3D3" cx="13.5" cy="13.5" r="8.361"/>
</symbol><symbol id="icon-menu" viewBox="0 0 22.928 21.982">
  <g>
    <rect width="22.928" height="3.964"/>
    <rect y="9.009" width="22.928" height="3.964"/>
    <rect y="18.018" width="22.928" height="3.964"/>
  </g>
</symbol><symbol id="icon-phone" viewBox="0 0 18 18">
  <g id="Page-1">
    <g id="Icons-Communication" transform="translate(-85.000000, -126.000000)">
      <g id="phone" transform="translate(85.000000, 126.000000)">
        <path id="Shape" fill="#010101" d="M3.6,7.8C5,10.6,7.4,12.9,10.2,14.4l2.2-2.2c0.3-0.3,0.699-0.4,1-0.2c1.1,0.4,2.3,0.6,3.6,0.6 c0.6,0,1,0.4,1,1V17c0,0.6-0.4,1-1,1C7.6,18,0,10.4,0,1c0-0.6,0.4-1,1-1h3.5c0.6,0,1,0.4,1,1c0,1.2,0.2,2.4,0.6,3.6 c0.1,0.3,0,0.7-0.2,1L3.6,7.8L3.6,7.8z"/>
      </g>
    </g>
  </g>
</symbol><symbol id="icon-tick" viewBox="0 0 23.049 16.249">
  <path d="M22.801,1.299L21.75,0.248c-0.331-0.331-0.872-0.331-1.203,0L8.693,12.102L2.502,5.911c-0.331-0.331-0.872-0.331-1.203,0 L0.248,6.962c-0.331,0.331-0.331,0.872,0,1.202l7.837,7.837c0.167,0.167,0.388,0.248,0.608,0.246c0.22,0.002,0.44-0.079,0.608-0.246 l13.5-13.5C23.132,2.171,23.132,1.63,22.801,1.299z"/>
</symbol><symbol id="icon-twitter" viewBox="0 0 17.5 14.663">
  <g id="W6EeEF_1_">
    <g>
      <path fill-rule="evenodd" clip-rule="evenodd" d="M11.283,0.153c1.736-0.484,3.074,0.264,3.685,1.15 c0.694-0.225,1.372-0.47,2.072-0.69c-0.004,0.841-0.538,1.478-0.883,1.728C16.861,2.506,17.5,1.86,17.5,1.86 c-0.175,0.977-1.035,1.746-1.611,1.977C15.65,10.429,12.617,14.793,5.507,14.66c-0.538,0,0.077,0-0.46,0 c-0.422,0-4.29-0.45-5.047-1.843c2.341,0.192,4.011-0.412,4.835-1.15c-0.989-0.293-2.761-0.464-3.07-2.881 c0.362,0.105,0.583,0.223,1.228,0.117C1.757,8.067,0.385,7.366,0.461,5.218c0.294,0.319,1.1,0.523,1.381,0.461 c-0.725-0.235-2.03-3.281-0.921-4.836C2.794,2.655,4.769,4.364,8.29,4.528C8.506,2.288,9.461,0.788,11.283,0.153z"/>
    </g>
  </g>
</symbol><symbol id="icon-video-fullscreen" viewBox="0 0 20 20">
  <g>
    <polygon fill="#454545" points="0,0 0,3 0,6 3,6 3,3 6,3 6,0 3,0"/>
    <polygon fill="#454545" points="3,14 0,14 0,17 0,20 3,20 6,20 6,17 3,17"/>
    <polygon fill="#454545" points="17,0 14,0 14,3 17,3 17,6 20,6 20,3 20,0"/>
    <polygon fill="#454545" points="17,17 14,17 14,20 17,20 20,20 20,17 20,14 17,14"/>
  </g>
</symbol><symbol id="icon-video-replay" viewBox="0 0 16 20">
  <path d="M8,4V0L3,5l5,5V6c3.315,0,6,2.686,6,6s-2.685,6-6,6s-6-2.686-6-6H0c0,4.42,3.58,8,8,8s8-3.58,8-8S12.42,4,8,4z"/>
</symbol><symbol id="icon-video-subtitles" viewBox="0 0 32 20">
  <path fill="#454545" d="M29,0H3C1.35,0,0,1.35,0,3v14c0,1.65,1.35,3,3,3h26c1.65,0,3-1.35,3-3V3C32,1.35,30.65,0,29,0z M14.403,15.854c-0.545,0.108-1.104,0.164-1.678,0.164c-0.694,0-1.354-0.107-1.976-0.323c-0.623-0.214-1.172-0.562-1.646-1.041 s-0.852-1.103-1.133-1.868C7.69,12.02,7.551,11.091,7.551,10c0-1.134,0.157-2.085,0.471-2.851c0.315-0.768,0.723-1.384,1.224-1.854  c0.502-0.468,1.062-0.804,1.679-1.008c0.616-0.204,1.233-0.307,1.852-0.307c0.66,0,1.22,0.045,1.678,0.134  c0.457,0.087,0.835,0.192,1.133,0.313L15.14,6.347c-0.254-0.121-0.555-0.209-0.902-0.265C13.891,6.027,13.47,6,12.973,6 c-0.915,0-1.649,0.325-2.206,0.977c-0.558,0.651-0.836,1.663-0.836,3.031c0,0.598,0.067,1.142,0.199,1.632  c0.132,0.493,0.334,0.913,0.603,1.26c0.271,0.349,0.607,0.619,1.01,0.812c0.402,0.193,0.867,0.29,1.396,0.29  c0.496,0,0.915-0.049,1.257-0.148c0.342-0.099,0.639-0.227,0.893-0.38l0.463,1.841C15.398,15.564,14.949,15.745,14.403,15.854z   M23.101,15.854c-0.545,0.108-1.105,0.164-1.678,0.164c-0.694,0-1.354-0.107-1.976-0.323c-0.623-0.214-1.172-0.562-1.646-1.041  s-0.852-1.103-1.133-1.868c-0.281-0.767-0.421-1.695-0.421-2.786c0-1.134,0.157-2.085,0.471-2.851  c0.314-0.768,0.723-1.384,1.223-1.854c0.502-0.468,1.062-0.804,1.68-1.008c0.616-0.204,1.233-0.307,1.851-0.307 c0.661,0,1.221,0.045,1.678,0.134c0.458,0.087,0.836,0.192,1.133,0.313l-0.446,1.918c-0.253-0.121-0.554-0.209-0.901-0.265  C22.588,6.027,22.166,6,21.67,6c-0.915,0-1.649,0.325-2.206,0.977c-0.558,0.651-0.836,1.663-0.836,3.031  c0,0.598,0.067,1.142,0.199,1.632c0.132,0.493,0.334,0.913,0.603,1.26c0.271,0.349,0.606,0.619,1.009,0.812 c0.402,0.193,0.868,0.29,1.396,0.29c0.497,0,0.915-0.049,1.257-0.148c0.342-0.099,0.64-0.227,0.894-0.38l0.463,1.841  C24.096,15.564,23.646,15.745,23.101,15.854z"/>
</symbol><symbol id="icon-youtube" viewBox="0 0 19.979 14.015">
  <path d="M17.145,0H2.835C1.275,0,0,1.275,0,2.835v8.345c0,1.56,1.275,2.835,2.835,2.835h14.31c1.56,0,2.835-1.275,2.835-2.835V2.835 C19.979,1.275,18.704,0,17.145,0z M7.036,10.392V3.623l6.769,3.384L7.036,10.392z"/>
</symbol></svg>